<svg width="36" height="36" viewBox="0 0 48 48" fill="none" xmlns="http://www.w3.org/2000/svg">
<circle cx="24" cy="24" r="18" fill="#FD3A4A" stroke="#F5E3C8" stroke-width="4"/>
<path d="M18.4286 33C18.0317 33 17.6944 32.8611 17.4167 32.5833C17.1389 32.3056 17 31.9683 17 31.5714V21.2381C17 20.8413 17.1389 20.504 17.4167 20.2262C17.6944 19.9484 18.0317 19.8095 18.4286 19.8095H20.0952V17.5238C20.0952 16.2698 20.5357 15.2024 21.4167 14.3214C22.2976 13.4405 23.3651 13 24.619 13C25.873 13 26.9405 13.4405 27.8214 14.3214C28.7024 15.2024 29.1429 16.2698 29.1429 17.5238V19.8095H30.8095C31.2063 19.8095 31.5437 19.9484 31.8214 20.2262C32.0992 20.504 32.2381 20.8413 32.2381 21.2381V31.5714C32.2381 31.9683 32.0992 32.3056 31.8214 32.5833C31.5437 32.8611 31.2063 33 30.8095 33H18.4286ZM18.4286 31.5714H30.8095V21.2381H18.4286V31.5714ZM24.619 28.2381C25.127 28.2381 25.5595 28.0635 25.9167 27.7143C26.2738 27.3651 26.4524 26.9444 26.4524 26.4524C26.4524 25.9762 26.2738 25.5437 25.9167 25.1548C25.5595 24.7659 25.127 24.5714 24.619 24.5714C24.1111 24.5714 23.6786 24.7659 23.3214 25.1548C22.9643 25.5437 22.7857 25.9762 22.7857 26.4524C22.7857 26.9444 22.9643 27.3651 23.3214 27.7143C23.6786 28.0635 24.1111 28.2381 24.619 28.2381ZM21.5238 19.8095H27.7143V17.5238C27.7143 16.6667 27.4127 15.9365 26.8095 15.3333C26.2063 14.7302 25.4762 14.4286 24.619 14.4286C23.7619 14.4286 23.0317 14.7302 22.4286 15.3333C21.8254 15.9365 21.5238 16.6667 21.5238 17.5238V19.8095ZM18.4286 31.5714V21.2381V31.5714Z" fill="#F5E3C8"/>
</svg>
