<svg
            width="420"
            height="394"
            viewBox="0 0 420 394"
            fill="none"
            xmlns="http://www.w3.org/2000/svg"
        >
            <path d="M53.8707 300.601L64.691 286.174" stroke="#C1444E" stroke-width="4.80899" />
            <path d="M61.0842 311.421L71.9045 296.994" stroke="#C1444E" stroke-width="4.80899" />
            <path d="M69.5 323.443L81.5225 306.011" stroke="#C1444E" stroke-width="4.80899" />
            <path d="M57.4775 306.612L70.7023 289.78" stroke="#C1444E" stroke-width="4.80899" />
            <path d="M64.691 317.432L77.9158 300.601" stroke="#C1444E" stroke-width="4.80899" />
            <path d="M73.1067 329.455L86.3314 312.623" stroke="#C1444E" stroke-width="4.80899" />
            <path d="M84.5281 330.657L90.5393 322.241" stroke="#C1444E" stroke-width="4.80899" />
            <path d="M38.8427 357.106L46.0561 348.089" stroke="#C1444E" stroke-width="4.80899" />
            <path d="M27.4214 358.909L37.6405 340.876" stroke="#C1444E" stroke-width="4.80899" />
            <path d="M48.4607 359.511H16L31.6292 336.067" stroke="#C1444E" stroke-width="4.80899" />
            <path
                d="M106.77 368.527L65.8933 360.713L61.6854 340.876"
                stroke="#C1444E"
                stroke-width="4.80899"
            />
            <path
                d="M67.0954 360.713H49.0617L46.0561 346.887L31.6292 334.864L37.6404 299.398"
                stroke="#C1444E"
                stroke-width="4.80899"
            />
            <path
                d="M49.6629 296.994L38.8427 298.797L43.6516 320.437L62.2865 339.673L66.4943 320.437"
                stroke="#C1444E"
                stroke-width="4.80899"
            />
            <path d="M64.0898 281.966L89.9382 316.23" stroke="#C1444E" stroke-width="4.80899" />
            <path
                d="M94.1461 347.488L86.3315 334.264L68.2978 324.044L49.663 295.792L62.8877 279.561"
                stroke="#C1444E"
                stroke-width="4.80899"
            />
            <path d="M175.298 369.73L168.084 384.157" stroke="#C1444E" stroke-width="4.80899" />
            <path d="M171.691 363.117L162.674 380.55" stroke="#C1444E" stroke-width="4.80899" />
            <path d="M166.882 354.101L155.461 379.949" stroke="#C1444E" stroke-width="4.80899" />
            <path d="M160.27 350.494L148.848 374.539" stroke="#C1444E" stroke-width="4.80899" />
            <path d="M154.258 346.887L143.438 365.522" stroke="#C1444E" stroke-width="4.80899" />
            <path
                d="M182.511 334.865L187.32 363.718L205.955 390.769L182.511 388.365L170.489 356.505L143.438 339.072L135.624 352.898L148.848 378.145L180.107 388.365"
                stroke="#C1444E"
                stroke-width="4.80899"
            />
            <path d="M174.697 385.359L178.303 378.146" stroke="#C1444E" stroke-width="4.80899" />
            <path d="M147.646 343.881L139.831 358.909" stroke="#C1444E" stroke-width="4.80899" />
            <path
                d="M145.242 378.747L110.376 370.331L98.3539 350.494L91.1404 318.033L135.624 353.499"
                stroke="#C1444E"
                stroke-width="4.80899"
            />
            <path d="M120.595 298.797L131.416 310.218" stroke="#C1444E" stroke-width="4.80899" />
            <path
                d="M146.444 281.966H151.253L162.073 290.982L168.084 315.027L170.489 354.702L142.837 337.269L115.185 302.404"
                stroke="#C1444E"
                stroke-width="4.80899"
            />
            <path d="M88.736 112.449L73.7079 268.741" stroke="#C1444E" stroke-width="4.80899" />
            <path
                d="M97.7528 265.252V278.96H112.18V265.252C105.567 257.921 99.6346 261.988 97.7528 265.252Z"
                fill="#C1444E"
                stroke="#C1444E"
                stroke-width="4.80899"
            />
            <path
                d="M141.034 257.32C110.256 247.221 78.9176 253.112 67.0955 257.32L71.9044 208.629C102.201 200.934 127.007 205.423 135.624 208.629L141.034 257.32Z"
                fill="#C1444E"
                stroke="#C1444E"
                stroke-width="4.80899"
            />
            <path
                d="M130.213 170.758C108.194 161.355 85.7727 166.84 77.3146 170.758L80.7552 125.421C102.431 118.257 120.178 122.436 126.343 125.421L130.213 170.758Z"
                fill="#C1444E"
                stroke="#C1444E"
                stroke-width="4.80899"
            />
            <path
                d="M113.382 299.999L60.4832 281.365H147.646L113.382 299.999Z"
                stroke="#C1444E"
                stroke-width="4.80899"
            />
            <path d="M107.371 296.393L135.022 281.365" stroke="#C1444E" stroke-width="4.80899" />
            <path d="M98.9551 293.988L123 280.763" stroke="#C1444E" stroke-width="4.80899" />
            <path d="M80.3202 289.78L92.9438 282.567" stroke="#C1444E" stroke-width="4.80899" />
            <path d="M89.9382 291.584L107.972 282.567" stroke="#C1444E" stroke-width="4.80899" />
            <path
                d="M82.1236 106.438L64.691 278.359H143.438L125.405 106.438H82.1236Z"
                stroke="#C1444E"
                stroke-width="4.80899"
            />
            <rect x="71.3033" y="91.4094" width="64.9213" height="10.8202" fill="#C1444E" />
            <path
                d="M81.806 109.443L77.3146 104.634H130.213L125.722 109.443H81.806Z"
                fill="#C1444E"
                stroke="#C1444E"
                stroke-width="4.80899"
            />
            <rect
                x="82.7248"
                y="59.55"
                width="43.2809"
                height="30.0562"
                stroke="#C1444E"
                stroke-width="3.60674"
            />
            <path d="M95.3483 60.7522V89.6061" stroke="#C1444E" stroke-width="4.80899" />
            <path d="M112.18 60.7522V89.6061" stroke="#C1444E" stroke-width="4.80899" />
            <rect
                x="74.309"
                y="48.7298"
                width="61.3146"
                height="8.41573"
                fill="#C1444E"
                stroke="#C1444E"
                stroke-width="1.20225"
            />
            <path d="M105.567 26.488L131.076 48.1285H80.0585L105.567 26.488Z" fill="#C1444E" />
            <path d="M105.567 33.1005V16.269" stroke="#C1444E" stroke-width="4.80899" />
            <path d="M127.208 295.792L137.427 306.612" stroke="#C1444E" stroke-width="4.80899" />
            <path d="M142.837 322.842L136.225 315.027" stroke="#C1444E" stroke-width="4.80899" />
            <path
                d="M171.09 317.432L181.91 334.864L171.09 354.1"
                stroke="#C1444E"
                stroke-width="4.80899"
            />
            <path d="M419.5 0L128 66.8124V80.6698L419.5 142.038V0Z" fill="#F5E3C8">
                <animate
                    attributeType="XML"
                    attributeName="visibility"
                    values="hidden;visible;"
                    dur="2s"
                    repeatCount="indefinite"
                />
            </path>
            <path d="M0 48.769L80.5 66.8124V80.6698L0 94.769V48.769Z" fill="#F5E3C8">
                <animate
                    attributeType="XML"
                    attributeName="visibility"
                    values="hidden;visible;"
                    dur="2s"
                    repeatCount="indefinite"
                />
            </path>
            <path
                d="M175.573 215.66C176.022 214.278 177.978 214.278 178.427 215.66L179.133 217.833C179.334 218.451 179.91 218.87 180.559 218.87H182.845C184.298 218.87 184.902 220.729 183.727 221.583L181.878 222.927C181.352 223.309 181.132 223.986 181.333 224.604L182.039 226.778C182.488 228.16 180.906 229.309 179.731 228.455L177.882 227.111C177.356 226.729 176.644 226.729 176.118 227.111L174.269 228.455C173.094 229.309 171.512 228.16 171.961 226.778L172.667 224.604C172.868 223.986 172.648 223.309 172.122 222.927L170.273 221.583C169.098 220.729 169.702 218.87 171.155 218.87H173.441C174.09 218.87 174.666 218.451 174.867 217.833L175.573 215.66Z"
                fill="#F5E3C8"
            />
            <path
                d="M170.573 168.66C171.022 167.278 172.978 167.278 173.427 168.66L174.133 170.833C174.334 171.451 174.91 171.87 175.559 171.87H177.845C179.298 171.87 179.902 173.729 178.727 174.583L176.878 175.927C176.352 176.309 176.132 176.986 176.333 177.604L177.039 179.778C177.488 181.16 175.906 182.309 174.731 181.455L172.882 180.111C172.356 179.729 171.644 179.729 171.118 180.111L169.269 181.455C168.094 182.309 166.512 181.16 166.961 179.778L167.667 177.604C167.868 176.986 167.648 176.309 167.122 175.927L165.273 174.583C164.098 173.729 164.702 171.87 166.155 171.87H168.441C169.09 171.87 169.666 171.451 169.867 170.833L170.573 168.66Z"
                fill="#F5E3C8"
            />
            <path
                d="M163.573 112.66C164.022 111.278 165.978 111.278 166.427 112.66L167.133 114.833C167.334 115.451 167.91 115.87 168.559 115.87H170.845C172.298 115.87 172.902 117.729 171.727 118.583L169.878 119.927C169.352 120.309 169.132 120.986 169.333 121.604L170.039 123.778C170.488 125.16 168.906 126.309 167.731 125.455L165.882 124.111C165.356 123.729 164.644 123.729 164.118 124.111L162.269 125.455C161.094 126.309 159.512 125.16 159.961 123.778L160.667 121.604C160.868 120.986 160.648 120.309 160.122 119.927L158.273 118.583C157.098 117.729 157.702 115.87 159.155 115.87H161.441C162.09 115.87 162.666 115.451 162.867 114.833L163.573 112.66Z"
                fill="#F5E3C8"
            />
            <path
                d="M37.5734 153.66C38.0224 152.278 39.9776 152.278 40.4266 153.66L41.1329 155.833C41.3337 156.451 41.9096 156.87 42.5595 156.87H44.8451C46.2982 156.87 46.9023 158.729 45.7268 159.583L43.8777 160.927C43.3519 161.309 43.1319 161.986 43.3328 162.604L44.0391 164.778C44.4881 166.16 42.9064 167.309 41.7308 166.455L39.8817 165.111C39.3559 164.729 38.6441 164.729 38.1183 165.111L36.2692 166.455C35.0936 167.309 33.5119 166.16 33.9609 164.778L34.6672 162.604C34.8681 161.986 34.6481 161.309 34.1223 160.927L32.2732 159.583C31.0977 158.729 31.7018 156.87 33.1549 156.87H35.4405C36.0904 156.87 36.6663 156.451 36.8671 155.833L37.5734 153.66Z"
                fill="#F5E3C8"
            />
            <path
                d="M48.5734 190.66C49.0224 189.278 50.9776 189.278 51.4266 190.66L52.1329 192.833C52.3337 193.451 52.9096 193.87 53.5595 193.87H55.8451C57.2982 193.87 57.9023 195.729 56.7268 196.583L54.8777 197.927C54.3519 198.309 54.1319 198.986 54.3328 199.604L55.0391 201.778C55.4881 203.16 53.9064 204.309 52.7308 203.455L50.8817 202.111C50.3559 201.729 49.6441 201.729 49.1183 202.111L47.2692 203.455C46.0936 204.309 44.5119 203.16 44.9609 201.778L45.6672 199.604C45.8681 198.986 45.6481 198.309 45.1223 197.927L43.2732 196.583C42.0977 195.729 42.7018 193.87 44.1549 193.87H46.4405C47.0904 193.87 47.6663 193.451 47.8671 192.833L48.5734 190.66Z"
                fill="#F5E3C8"
            />
            <path
                d="M49.5734 33.6596C50.0224 32.2777 51.9776 32.2777 52.4266 33.6596L53.1329 35.8334C53.3337 36.4514 53.9096 36.8699 54.5595 36.8699H56.8451C58.2982 36.8699 58.9023 38.7293 57.7268 39.5834L55.8777 40.9268C55.3519 41.3088 55.1319 41.9859 55.3328 42.6039L56.0391 44.7777C56.4881 46.1596 54.9064 47.3088 53.7308 46.4547L51.8817 45.1112C51.3559 44.7293 50.6441 44.7293 50.1183 45.1112L48.2692 46.4547C47.0936 47.3088 45.5119 46.1596 45.9609 44.7777L46.6672 42.6039C46.8681 41.9859 46.6481 41.3088 46.1223 40.9268L44.2732 39.5834C43.0977 38.7293 43.7018 36.8699 45.1549 36.8699H47.4405C48.0904 36.8699 48.6663 36.4514 48.8671 35.8334L49.5734 33.6596Z"
                fill="#F5E3C8"
            />
            <path
                d="M163.573 9.65962C164.022 8.27765 165.978 8.27765 166.427 9.65962L167.133 11.8334C167.334 12.4514 167.91 12.8699 168.559 12.8699H170.845C172.298 12.8699 172.902 14.7293 171.727 15.5834L169.878 16.9268C169.352 17.3088 169.132 17.9859 169.333 18.6039L170.039 20.7777C170.488 22.1596 168.906 23.3088 167.731 22.4547L165.882 21.1112C165.356 20.7293 164.644 20.7293 164.118 21.1112L162.269 22.4547C161.094 23.3088 159.512 22.1596 159.961 20.7777L160.667 18.6039C160.868 17.9859 160.648 17.3088 160.122 16.9268L158.273 15.5834C157.098 14.7293 157.702 12.8699 159.155 12.8699H161.441C162.09 12.8699 162.666 12.4514 162.867 11.8334L163.573 9.65962Z"
                fill="#F5E3C8"
            />
            <g clip-path="url(#clip0_1815_547)">
                <rect
                    x="207.5"
                    y="136.769"
                    width="185"
                    height="247"
                    rx="18.5"
                    fill="#F5E3C8"
                    stroke="#F5E3C8"
                    stroke-width="3"
                    stroke-dasharray="2 2"
                />
                <path
                    d="M285.573 218.66C286.022 217.278 287.978 217.278 288.427 218.66L288.684 219.451C288.885 220.069 289.461 220.488 290.11 220.488H290.943C292.396 220.488 293 222.347 291.825 223.201L291.151 223.691C290.625 224.073 290.405 224.75 290.606 225.368L290.863 226.16C291.313 227.542 289.731 228.691 288.555 227.837L287.882 227.347C287.356 226.965 286.644 226.965 286.118 227.347L285.445 227.837C284.269 228.691 282.687 227.542 283.137 226.16L283.394 225.368C283.595 224.75 283.375 224.073 282.849 223.691L282.175 223.201C281 222.347 281.604 220.488 283.057 220.488H283.89C284.539 220.488 285.115 220.069 285.316 219.451L285.573 218.66Z"
                    fill="#9F1A23"
                />
                <path
                    d="M303.573 218.66C304.022 217.278 305.978 217.278 306.427 218.66L306.684 219.451C306.885 220.069 307.461 220.488 308.11 220.488H308.943C310.396 220.488 311 222.347 309.825 223.201L309.151 223.691C308.625 224.073 308.405 224.75 308.606 225.368L308.863 226.16C309.313 227.542 307.731 228.691 306.555 227.837L305.882 227.347C305.356 226.965 304.644 226.965 304.118 227.347L303.445 227.837C302.269 228.691 300.687 227.542 301.137 226.16L301.394 225.368C301.595 224.75 301.375 224.073 300.849 223.691L300.175 223.201C299 222.347 299.604 220.488 301.057 220.488H301.89C302.539 220.488 303.115 220.069 303.316 219.451L303.573 218.66Z"
                    fill="#9F1A23"
                />
                <path
                    d="M321.573 218.66C322.022 217.278 323.978 217.278 324.427 218.66L324.684 219.451C324.885 220.069 325.461 220.488 326.11 220.488H326.943C328.396 220.488 329 222.347 327.825 223.201L327.151 223.691C326.625 224.073 326.405 224.75 326.606 225.368L326.863 226.16C327.313 227.542 325.731 228.691 324.555 227.837L323.882 227.347C323.356 226.965 322.644 226.965 322.118 227.347L321.445 227.837C320.269 228.691 318.687 227.542 319.137 226.16L319.394 225.368C319.595 224.75 319.375 224.073 318.849 223.691L318.175 223.201C317 222.347 317.604 220.488 319.057 220.488H319.89C320.539 220.488 321.115 220.069 321.316 219.451L321.573 218.66Z"
                    fill="#9F1A23"
                />
                <path
                    d="M293.729 159.422L300.153 172.269L303.982 171.775L306.206 155.346L302.253 165.228L300.771 152.381L299.412 165.722L293.729 159.422Z"
                    fill="#F18599"
                    stroke="#9F1A23"
                    stroke-width="0.988234"
                />
                <path
                    d="M299.041 170.54C300.112 170.622 302.574 170.54 303.859 169.551"
                    stroke="#9F1A23"
                    stroke-width="0.988234"
                />
                <path
                    d="M298.423 168.934C299.906 169.057 303.093 169.033 303.982 167.946"
                    stroke="#9F1A23"
                    stroke-width="0.988234"
                />
                <circle cx="293.112" cy="158.804" r="1.11176" fill="#9F1A23" />
                <circle cx="301.018" cy="152.381" r="1.11176" fill="#9F1A23" />
                <circle cx="306.206" cy="155.84" r="1.11176" fill="#9F1A23" />
                <path
                    d="M256.752 184.965H258.782V193.309H263.626V195.269H256.752V184.965ZM265.721 184.965H267.751V195.269H265.721V184.965ZM278.768 194.233C278.647 194.364 278.455 194.499 278.194 194.639C277.933 194.77 277.629 194.891 277.284 195.003C276.948 195.115 276.603 195.204 276.248 195.269C275.893 195.344 275.557 195.381 275.24 195.381C274.4 195.381 273.644 195.26 272.972 195.017C272.3 194.765 271.726 194.42 271.25 193.981C270.774 193.533 270.41 193.006 270.158 192.399C269.906 191.792 269.78 191.13 269.78 190.411C269.78 189.468 269.92 188.652 270.2 187.961C270.489 187.261 270.877 186.682 271.362 186.225C271.857 185.758 272.421 185.413 273.056 185.189C273.7 184.965 274.372 184.853 275.072 184.853C275.735 184.853 276.341 184.928 276.892 185.077C277.443 185.217 277.909 185.394 278.292 185.609L277.634 187.499C277.466 187.406 277.242 187.312 276.962 187.219C276.682 187.126 276.397 187.051 276.108 186.995C275.819 186.93 275.562 186.897 275.338 186.897C274.778 186.897 274.283 186.967 273.854 187.107C273.425 187.247 273.061 187.457 272.762 187.737C272.473 188.017 272.253 188.367 272.104 188.787C271.955 189.198 271.88 189.678 271.88 190.229C271.88 190.714 271.964 191.153 272.132 191.545C272.3 191.928 272.533 192.254 272.832 192.525C273.14 192.796 273.499 193.001 273.91 193.141C274.33 193.281 274.792 193.351 275.296 193.351C275.585 193.351 275.851 193.332 276.094 193.295C276.337 193.248 276.542 193.178 276.71 193.085V191.839H274.932V189.879H278.768V194.233ZM289.74 184.965V195.269H287.71V191.083H283.104V195.269H281.074V184.965H283.104V189.123H287.71V184.965H289.74ZM291.694 184.965H298.638V186.925H296.132V195.269H294.102V186.925H291.694V184.965ZM309.264 184.965V195.269H307.234V191.083H302.628V195.269H300.598V184.965H302.628V189.123H307.234V184.965H309.264ZM311.288 190.131C311.288 189.422 311.423 188.75 311.694 188.115C311.965 187.48 312.338 186.92 312.814 186.435C313.299 185.94 313.859 185.553 314.494 185.273C315.129 184.993 315.81 184.853 316.538 184.853C317.257 184.853 317.933 184.993 318.568 185.273C319.203 185.553 319.763 185.94 320.248 186.435C320.743 186.92 321.125 187.48 321.396 188.115C321.676 188.75 321.816 189.422 321.816 190.131C321.816 190.859 321.676 191.54 321.396 192.175C321.125 192.81 320.743 193.37 320.248 193.855C319.763 194.331 319.203 194.704 318.568 194.975C317.933 195.246 317.257 195.381 316.538 195.381C315.81 195.381 315.129 195.246 314.494 194.975C313.859 194.704 313.299 194.331 312.814 193.855C312.338 193.37 311.965 192.81 311.694 192.175C311.423 191.54 311.288 190.859 311.288 190.131ZM313.388 190.131C313.388 190.588 313.467 191.018 313.626 191.419C313.794 191.811 314.023 192.161 314.312 192.469C314.611 192.768 314.951 193.001 315.334 193.169C315.726 193.337 316.151 193.421 316.608 193.421C317.047 193.421 317.453 193.337 317.826 193.169C318.209 193.001 318.54 192.768 318.82 192.469C319.1 192.161 319.319 191.811 319.478 191.419C319.637 191.018 319.716 190.588 319.716 190.131C319.716 189.664 319.632 189.23 319.464 188.829C319.305 188.428 319.081 188.078 318.792 187.779C318.512 187.471 318.181 187.233 317.798 187.065C317.415 186.897 317 186.813 316.552 186.813C316.104 186.813 315.689 186.897 315.306 187.065C314.923 187.233 314.587 187.471 314.298 187.779C314.009 188.078 313.785 188.428 313.626 188.829C313.467 189.23 313.388 189.664 313.388 190.131ZM325.66 191.461C325.66 191.788 325.758 192.1 325.954 192.399C326.15 192.698 326.406 192.94 326.724 193.127C327.05 193.314 327.405 193.407 327.788 193.407C328.208 193.407 328.581 193.314 328.908 193.127C329.234 192.94 329.491 192.698 329.678 192.399C329.874 192.1 329.972 191.788 329.972 191.461V184.965H331.974V191.503C331.974 192.259 331.787 192.931 331.414 193.519C331.04 194.098 330.536 194.555 329.902 194.891C329.267 195.218 328.562 195.381 327.788 195.381C327.022 195.381 326.322 195.218 325.688 194.891C325.062 194.555 324.563 194.098 324.19 193.519C323.816 192.931 323.63 192.259 323.63 191.503V184.965H325.66V191.461ZM339.924 187.457C339.532 187.242 339.13 187.065 338.72 186.925C338.318 186.785 337.94 186.715 337.586 186.715C337.147 186.715 336.802 186.804 336.55 186.981C336.298 187.158 336.172 187.424 336.172 187.779C336.172 188.022 336.265 188.241 336.452 188.437C336.648 188.624 336.895 188.792 337.194 188.941C337.502 189.09 337.819 189.226 338.146 189.347C338.444 189.459 338.738 189.594 339.028 189.753C339.326 189.902 339.592 190.094 339.826 190.327C340.059 190.551 340.246 190.836 340.386 191.181C340.526 191.517 340.596 191.932 340.596 192.427C340.596 192.95 340.46 193.435 340.19 193.883C339.919 194.331 339.522 194.695 339 194.975C338.477 195.246 337.833 195.381 337.068 195.381C336.676 195.381 336.274 195.344 335.864 195.269C335.462 195.185 335.066 195.064 334.674 194.905C334.282 194.737 333.904 194.527 333.54 194.275L334.436 192.693C334.678 192.87 334.94 193.029 335.22 193.169C335.509 193.3 335.798 193.402 336.088 193.477C336.377 193.552 336.643 193.589 336.886 193.589C337.128 193.589 337.371 193.556 337.614 193.491C337.866 193.416 338.071 193.295 338.23 193.127C338.398 192.959 338.482 192.726 338.482 192.427C338.482 192.222 338.412 192.035 338.272 191.867C338.141 191.699 337.959 191.545 337.726 191.405C337.502 191.265 337.254 191.144 336.984 191.041C336.666 190.92 336.34 190.78 336.004 190.621C335.668 190.462 335.35 190.271 335.052 190.047C334.762 189.814 334.524 189.529 334.338 189.193C334.16 188.848 334.072 188.428 334.072 187.933C334.072 187.336 334.202 186.818 334.464 186.379C334.734 185.94 335.112 185.595 335.598 185.343C336.083 185.082 336.643 184.937 337.278 184.909C338.108 184.909 338.78 185.007 339.294 185.203C339.816 185.399 340.283 185.632 340.694 185.903L339.924 187.457ZM342.584 184.965H349.612V186.925H344.614V189.123H349.038V191.083H344.614V193.309H349.808V195.269H342.584V184.965ZM272.185 198.965C273.035 198.965 273.753 199.11 274.341 199.399C274.929 199.679 275.377 200.08 275.685 200.603C275.993 201.116 276.147 201.728 276.147 202.437C276.147 202.857 276.082 203.282 275.951 203.711C275.83 204.131 275.629 204.514 275.349 204.859C275.079 205.204 274.71 205.484 274.243 205.699C273.786 205.904 273.221 206.007 272.549 206.007H271.093V209.269H269.063V198.965H272.185ZM272.535 204.033C272.843 204.033 273.1 203.982 273.305 203.879C273.511 203.767 273.669 203.632 273.781 203.473C273.903 203.305 273.987 203.132 274.033 202.955C274.089 202.778 274.117 202.624 274.117 202.493C274.117 202.39 274.099 202.255 274.061 202.087C274.033 201.91 273.968 201.732 273.865 201.555C273.763 201.378 273.604 201.228 273.389 201.107C273.184 200.986 272.904 200.925 272.549 200.925H271.093V204.033H272.535ZM281.086 198.965C281.73 198.965 282.304 199.049 282.808 199.217C283.312 199.376 283.732 199.609 284.068 199.917C284.413 200.216 284.674 200.58 284.852 201.009C285.029 201.429 285.118 201.905 285.118 202.437C285.118 202.857 285.052 203.277 284.922 203.697C284.8 204.117 284.595 204.5 284.306 204.845C284.026 205.19 283.652 205.47 283.186 205.685C282.719 205.89 282.14 205.993 281.45 205.993H279.994V209.269H277.964V198.965H281.086ZM281.436 204.033C281.744 204.033 282 203.982 282.206 203.879C282.411 203.776 282.57 203.646 282.682 203.487C282.803 203.328 282.887 203.165 282.934 202.997C282.99 202.82 283.018 202.656 283.018 202.507C283.018 202.395 282.999 202.255 282.962 202.087C282.934 201.91 282.868 201.732 282.766 201.555C282.663 201.378 282.504 201.228 282.29 201.107C282.084 200.986 281.804 200.925 281.45 200.925H279.994V204.033H281.436ZM283.34 205.293L285.888 209.269H283.522L280.918 205.349L283.34 205.293ZM287.561 198.965H289.591V209.269H287.561V198.965ZM301.477 209.689L293.665 202.633L294.267 202.969L294.309 209.269H292.251V198.559H292.335L299.979 205.587L299.531 205.391L299.489 198.965H301.533V209.689H301.477ZM311.914 208.415C311.802 208.508 311.592 208.634 311.284 208.793C310.986 208.952 310.617 209.092 310.178 209.213C309.74 209.334 309.254 209.39 308.722 209.381C307.91 209.362 307.182 209.218 306.538 208.947C305.904 208.667 305.362 208.289 304.914 207.813C304.476 207.337 304.14 206.791 303.906 206.175C303.673 205.559 303.556 204.901 303.556 204.201C303.556 203.417 303.673 202.698 303.906 202.045C304.149 201.392 304.49 200.827 304.928 200.351C305.376 199.875 305.908 199.506 306.524 199.245C307.14 198.984 307.822 198.853 308.568 198.853C309.259 198.853 309.87 198.946 310.402 199.133C310.934 199.32 311.368 199.52 311.704 199.735L310.906 201.653C310.673 201.476 310.36 201.294 309.968 201.107C309.586 200.911 309.142 200.813 308.638 200.813C308.246 200.813 307.868 200.897 307.504 201.065C307.15 201.224 306.832 201.452 306.552 201.751C306.282 202.05 306.067 202.4 305.908 202.801C305.75 203.193 305.67 203.622 305.67 204.089C305.67 204.584 305.74 205.036 305.88 205.447C306.03 205.858 306.24 206.212 306.51 206.511C306.781 206.8 307.103 207.024 307.476 207.183C307.859 207.342 308.288 207.421 308.764 207.421C309.315 207.421 309.786 207.332 310.178 207.155C310.57 206.978 310.869 206.791 311.074 206.595L311.914 208.415ZM313.948 198.965H320.976V200.925H315.978V203.123H320.402V205.083H315.978V207.309H321.172V209.269H313.948V198.965ZM328.774 201.457C328.382 201.242 327.981 201.065 327.57 200.925C327.169 200.785 326.791 200.715 326.436 200.715C325.998 200.715 325.652 200.804 325.4 200.981C325.148 201.158 325.022 201.424 325.022 201.779C325.022 202.022 325.116 202.241 325.302 202.437C325.498 202.624 325.746 202.792 326.044 202.941C326.352 203.09 326.67 203.226 326.996 203.347C327.295 203.459 327.589 203.594 327.878 203.753C328.177 203.902 328.443 204.094 328.676 204.327C328.91 204.551 329.096 204.836 329.236 205.181C329.376 205.517 329.446 205.932 329.446 206.427C329.446 206.95 329.311 207.435 329.04 207.883C328.77 208.331 328.373 208.695 327.85 208.975C327.328 209.246 326.684 209.381 325.918 209.381C325.526 209.381 325.125 209.344 324.714 209.269C324.313 209.185 323.916 209.064 323.524 208.905C323.132 208.737 322.754 208.527 322.39 208.275L323.286 206.693C323.529 206.87 323.79 207.029 324.07 207.169C324.36 207.3 324.649 207.402 324.938 207.477C325.228 207.552 325.494 207.589 325.736 207.589C325.979 207.589 326.222 207.556 326.464 207.491C326.716 207.416 326.922 207.295 327.08 207.127C327.248 206.959 327.332 206.726 327.332 206.427C327.332 206.222 327.262 206.035 327.122 205.867C326.992 205.699 326.81 205.545 326.576 205.405C326.352 205.265 326.105 205.144 325.834 205.041C325.517 204.92 325.19 204.78 324.854 204.621C324.518 204.462 324.201 204.271 323.902 204.047C323.613 203.814 323.375 203.529 323.188 203.193C323.011 202.848 322.922 202.428 322.922 201.933C322.922 201.336 323.053 200.818 323.314 200.379C323.585 199.94 323.963 199.595 324.448 199.343C324.934 199.082 325.494 198.937 326.128 198.909C326.959 198.909 327.631 199.007 328.144 199.203C328.667 199.399 329.134 199.632 329.544 199.903L328.774 201.457ZM336.936 201.457C336.544 201.242 336.143 201.065 335.732 200.925C335.331 200.785 334.953 200.715 334.598 200.715C334.16 200.715 333.814 200.804 333.562 200.981C333.31 201.158 333.184 201.424 333.184 201.779C333.184 202.022 333.278 202.241 333.464 202.437C333.66 202.624 333.908 202.792 334.206 202.941C334.514 203.09 334.832 203.226 335.158 203.347C335.457 203.459 335.751 203.594 336.04 203.753C336.339 203.902 336.605 204.094 336.838 204.327C337.072 204.551 337.258 204.836 337.398 205.181C337.538 205.517 337.608 205.932 337.608 206.427C337.608 206.95 337.473 207.435 337.202 207.883C336.932 208.331 336.535 208.695 336.012 208.975C335.49 209.246 334.846 209.381 334.08 209.381C333.688 209.381 333.287 209.344 332.876 209.269C332.475 209.185 332.078 209.064 331.686 208.905C331.294 208.737 330.916 208.527 330.552 208.275L331.448 206.693C331.691 206.87 331.952 207.029 332.232 207.169C332.522 207.3 332.811 207.402 333.1 207.477C333.39 207.552 333.656 207.589 333.898 207.589C334.141 207.589 334.384 207.556 334.626 207.491C334.878 207.416 335.084 207.295 335.242 207.127C335.41 206.959 335.494 206.726 335.494 206.427C335.494 206.222 335.424 206.035 335.284 205.867C335.154 205.699 334.972 205.545 334.738 205.405C334.514 205.265 334.267 205.144 333.996 205.041C333.679 204.92 333.352 204.78 333.016 204.621C332.68 204.462 332.363 204.271 332.064 204.047C331.775 203.814 331.537 203.529 331.35 203.193C331.173 202.848 331.084 202.428 331.084 201.933C331.084 201.336 331.215 200.818 331.476 200.379C331.747 199.94 332.125 199.595 332.61 199.343C333.096 199.082 333.656 198.937 334.29 198.909C335.121 198.909 335.793 199.007 336.306 199.203C336.829 199.399 337.296 199.632 337.706 199.903L336.936 201.457Z"
                    fill="#9F1A23"
                />
                <line
                    x1="254"
                    y1="176.769"
                    x2="351"
                    y2="176.769"
                    stroke="#9F1A23"
                    stroke-width="3"
                />
                <line x1="254" y1="180.769" x2="351" y2="180.769" stroke="#9F1A23" />
                <path d="M254 214.769H351" stroke="#9F1A23" />
                <path
                    d="M286.671 169.831L270.767 171.31"
                    stroke="#9F1A23"
                    stroke-width="1.47945"
                    stroke-linecap="round"
                />
                <path
                    d="M285.932 164.283H263"
                    stroke="#9F1A23"
                    stroke-width="1.47945"
                    stroke-linecap="round"
                />
                <path
                    d="M285.931 159.844L267.068 153.187"
                    stroke="#9F1A23"
                    stroke-width="1.47945"
                    stroke-linecap="round"
                />
                <path
                    d="M290 155.776L277.055 147.269"
                    stroke="#9F1A23"
                    stroke-width="1.47945"
                    stroke-linecap="round"
                />
                <path
                    d="M314.329 169.831L330.233 171.31"
                    stroke="#9F1A23"
                    stroke-width="1.47945"
                    stroke-linecap="round"
                />
                <path
                    d="M315.068 164.283H338"
                    stroke="#9F1A23"
                    stroke-width="1.47945"
                    stroke-linecap="round"
                />
                <path
                    d="M315.069 159.844L333.932 153.187"
                    stroke="#9F1A23"
                    stroke-width="1.47945"
                    stroke-linecap="round"
                />
                <path
                    d="M311 155.776L323.945 147.269"
                    stroke="#9F1A23"
                    stroke-width="1.47945"
                    stroke-linecap="round"
                />
            </g>
            <path
                d="M214.296 61.269H202.2V15.829H208.408L207.064 56.021L214.296 57.173V61.269ZM223.811 61.269H219.075V21.845L217.923 18.773V15.829H224.387L223.811 61.269ZM245.298 43.541V57.557C245.298 58.6664 244.85 59.5624 243.954 60.245C243.058 60.9277 242.013 61.269 240.818 61.269H231.218L229.81 19.285C229.853 18.261 230.151 17.429 230.706 16.789C231.303 16.149 232.05 15.829 232.946 15.829H245.746V18.517L244.594 25.493H241.778V19.349L234.61 20.949L235.698 54.101C235.698 54.3997 235.847 54.677 236.146 54.933C236.445 55.1464 236.743 55.253 237.042 55.253H239.986C240.285 55.253 240.562 55.189 240.818 55.061C241.117 54.8904 241.266 54.6984 241.266 54.485V39.317L247.794 39.957V42.453L245.298 43.541ZM262.799 40.405L257.679 40.981L258.383 61.269H253.903L252.431 15.829H257.615V36.629L262.351 35.669V17.109H267.919V19.797L266.958 21.333L268.303 62.549H264.143L262.799 40.405ZM286.555 16.725L286.875 20.757H281.243V61.269H275.803L277.083 21.909L272.475 20.373L273.307 15.829L286.555 16.725ZM301.236 40.405L296.116 40.981L296.82 61.269H292.34L290.868 15.829H296.052V36.629L300.788 35.669V17.109H306.356V19.797L305.396 21.333L306.74 62.549H302.58L301.236 40.405ZM315.265 15.829H323.905L326.465 17.621V58.965L322.433 61.269H316.289L312.513 58.581V17.877L315.265 15.829ZM322.177 19.733C322.177 19.349 321.985 19.157 321.601 19.157H318.273C317.889 19.157 317.697 19.349 317.697 19.733V56.405C317.697 56.661 317.889 56.789 318.273 56.789H320.961C321.345 56.789 321.537 56.661 321.537 56.405L322.177 19.733ZM338.135 16.469L336.792 57.301L342.168 56.917V17.301L346.648 17.557V62.549H331.928L333.4 16.469H338.135ZM362.053 24.853L360.773 19.861L356.933 20.309L355.973 34.517L365.253 36.181L364.357 57.429C364.357 58.2824 363.802 59.1357 362.693 59.989C361.584 60.8424 360.56 61.269 359.621 61.269H352.133L351.557 50.325H355.333L355.269 55.893L359.749 56.917L360.773 39.893L352.133 37.973V17.365L354.693 15.829H364.741L364.421 24.853H362.053ZM385.609 59.989H370.569L372.041 15.829H385.033V20.821H375.881V34.005H382.857V37.205L376.201 38.357V54.677L384.841 53.525L385.609 59.989ZM217.816 121.269H208.664C206.488 121.269 204.867 120.906 203.8 120.181C202.733 119.413 202.2 118.453 202.2 117.301V79.413C202.2 78.389 202.648 77.5357 203.544 76.853C204.44 76.1704 205.699 75.829 207.32 75.829H217.816V79.413L216.792 87.413H212.568L211.928 80.181C211.928 79.797 211.672 79.605 211.16 79.605H208.472C207.661 79.605 207.064 79.9464 206.68 80.629C206.339 81.269 206.168 81.9944 206.168 82.805C206.168 83.2744 206.232 83.5517 206.36 83.637L207.64 115.573C207.512 115.616 207.448 115.68 207.448 115.765C207.448 115.893 207.64 115.957 208.024 115.957H211.8C212.312 115.957 212.568 115.829 212.568 115.573L213.848 110.581H217.816V121.269ZM233.815 101.429L228.311 100.341V121.269H223.575V75.829H228.183L227.479 95.989L233.815 95.669V75.829H238.487V121.269H235.671L233.815 101.429ZM257.944 121.269H254.232L252.568 103.477H249.304L246.36 121.269H243.352L246.232 75.829H257.944V121.269ZM253.912 78.261C253.912 78.005 253.784 77.877 253.528 77.877H250.776C250.52 77.877 250.392 78.005 250.392 78.261V100.149C250.392 100.362 250.52 100.469 250.776 100.469H253.528C253.784 100.469 253.912 100.341 253.912 100.085V78.261ZM276.421 121.269H264.325V75.829H270.533L269.189 116.021L276.421 117.173V121.269ZM294.128 121.269H281.2V75.829H285.936V114.549L286.896 116.021L294.128 116.853V121.269ZM313.591 121.269H299.895V75.829H313.591V79.797L305.591 79.413V93.941L313.591 95.413V98.485L304.503 98.101V116.469L313.591 115.957V121.269ZM337.34 121.269H329.98L323.452 79.605H323.196V121.269H319.42V75.829H326.844L332.604 117.557H332.86L334.268 75.829H337.98L337.34 121.269ZM357.548 103.541V117.557C357.548 118.666 357.1 119.562 356.204 120.245C355.308 120.928 354.263 121.269 353.068 121.269H343.468L342.06 79.285C342.103 78.261 342.401 77.429 342.956 76.789C343.553 76.149 344.3 75.829 345.196 75.829H357.996V78.517L356.844 85.493H354.028V79.349L346.86 80.949L347.948 114.101C347.948 114.4 348.097 114.677 348.396 114.933C348.695 115.146 348.993 115.253 349.292 115.253H352.236C352.535 115.253 352.812 115.189 353.068 115.061C353.367 114.89 353.516 114.698 353.516 114.485V99.317L360.044 99.957V102.453L357.548 103.541ZM380.297 119.989H365.257L366.729 75.829H379.721V80.821H370.569V94.005H377.545V97.205L370.889 98.357V114.677L379.529 113.525L380.297 119.989ZM390.243 94.325L398.371 96.437V117.429C398.371 118.325 397.923 119.2 397.027 120.053C396.131 120.864 395.213 121.269 394.275 121.269H385.123V116.917H394.019L392.483 99.765L385.123 97.845V78.837C385.123 78.1544 385.379 77.493 385.891 76.853C386.445 76.1704 387.043 75.829 387.683 75.829H398.371V78.965L389.283 80.181L390.243 94.325Z"
                fill="#193445"
            />
            <path
                d="M216.296 60.269H204.2V14.829H210.408L209.064 55.021L216.296 56.173V60.269ZM225.811 60.269H221.075V20.845L219.923 17.773V14.829H226.387L225.811 60.269ZM247.298 42.541V56.557C247.298 57.6664 246.85 58.5624 245.954 59.245C245.058 59.9277 244.013 60.269 242.818 60.269H233.218L231.81 18.285C231.853 17.261 232.151 16.429 232.706 15.789C233.303 15.149 234.05 14.829 234.946 14.829H247.746V17.517L246.594 24.493H243.778V18.349L236.61 19.949L237.698 53.101C237.698 53.3997 237.847 53.677 238.146 53.933C238.445 54.1464 238.743 54.253 239.042 54.253H241.986C242.285 54.253 242.562 54.189 242.818 54.061C243.117 53.8904 243.266 53.6984 243.266 53.485V38.317L249.794 38.957V41.453L247.298 42.541ZM264.799 39.405L259.679 39.981L260.383 60.269H255.903L254.431 14.829H259.615V35.629L264.351 34.669V16.109H269.919V18.797L268.958 20.333L270.303 61.549H266.143L264.799 39.405ZM288.555 15.725L288.875 19.757H283.243V60.269H277.803L279.083 20.909L274.475 19.373L275.307 14.829L288.555 15.725ZM303.236 39.405L298.116 39.981L298.82 60.269H294.34L292.868 14.829H298.052V35.629L302.788 34.669V16.109H308.356V18.797L307.396 20.333L308.74 61.549H304.58L303.236 39.405ZM317.265 14.829H325.905L328.465 16.621V57.965L324.433 60.269H318.289L314.513 57.581V16.877L317.265 14.829ZM324.177 18.733C324.177 18.349 323.985 18.157 323.601 18.157H320.273C319.889 18.157 319.697 18.349 319.697 18.733V55.405C319.697 55.661 319.889 55.789 320.273 55.789H322.961C323.345 55.789 323.537 55.661 323.537 55.405L324.177 18.733ZM340.135 15.469L338.792 56.301L344.168 55.917V16.301L348.648 16.557V61.549H333.928L335.4 15.469H340.135ZM364.053 23.853L362.773 18.861L358.933 19.309L357.973 33.517L367.253 35.181L366.357 56.429C366.357 57.2824 365.802 58.1357 364.693 58.989C363.584 59.8424 362.56 60.269 361.621 60.269H354.133L353.557 49.325H357.333L357.269 54.893L361.749 55.917L362.773 38.893L354.133 36.973V16.365L356.693 14.829H366.741L366.421 23.853H364.053ZM387.609 58.989H372.569L374.041 14.829H387.033V19.821H377.881V33.005H384.857V36.205L378.201 37.357V53.677L386.841 52.525L387.609 58.989ZM219.816 120.269H210.664C208.488 120.269 206.867 119.906 205.8 119.181C204.733 118.413 204.2 117.453 204.2 116.301V78.413C204.2 77.389 204.648 76.5357 205.544 75.853C206.44 75.1704 207.699 74.829 209.32 74.829H219.816V78.413L218.792 86.413H214.568L213.928 79.181C213.928 78.797 213.672 78.605 213.16 78.605H210.472C209.661 78.605 209.064 78.9464 208.68 79.629C208.339 80.269 208.168 80.9944 208.168 81.805C208.168 82.2744 208.232 82.5517 208.36 82.637L209.64 114.573C209.512 114.616 209.448 114.68 209.448 114.765C209.448 114.893 209.64 114.957 210.024 114.957H213.8C214.312 114.957 214.568 114.829 214.568 114.573L215.848 109.581H219.816V120.269ZM235.815 100.429L230.311 99.341V120.269H225.575V74.829H230.183L229.479 94.989L235.815 94.669V74.829H240.487V120.269H237.671L235.815 100.429ZM259.944 120.269H256.232L254.568 102.477H251.304L248.36 120.269H245.352L248.232 74.829H259.944V120.269ZM255.912 77.261C255.912 77.005 255.784 76.877 255.528 76.877H252.776C252.52 76.877 252.392 77.005 252.392 77.261V99.149C252.392 99.3624 252.52 99.469 252.776 99.469H255.528C255.784 99.469 255.912 99.341 255.912 99.085V77.261ZM278.421 120.269H266.325V74.829H272.533L271.189 115.021L278.421 116.173V120.269ZM296.128 120.269H283.2V74.829H287.936V113.549L288.896 115.021L296.128 115.853V120.269ZM315.591 120.269H301.895V74.829H315.591V78.797L307.591 78.413V92.941L315.591 94.413V97.485L306.503 97.101V115.469L315.591 114.957V120.269ZM339.34 120.269H331.98L325.452 78.605H325.196V120.269H321.42V74.829H328.844L334.604 116.557H334.86L336.268 74.829H339.98L339.34 120.269ZM359.548 102.541V116.557C359.548 117.666 359.1 118.562 358.204 119.245C357.308 119.928 356.263 120.269 355.068 120.269H345.468L344.06 78.285C344.103 77.261 344.401 76.429 344.956 75.789C345.553 75.149 346.3 74.829 347.196 74.829H359.996V77.517L358.844 84.493H356.028V78.349L348.86 79.949L349.948 113.101C349.948 113.4 350.097 113.677 350.396 113.933C350.695 114.146 350.993 114.253 351.292 114.253H354.236C354.535 114.253 354.812 114.189 355.068 114.061C355.367 113.89 355.516 113.698 355.516 113.485V98.317L362.044 98.957V101.453L359.548 102.541ZM382.297 118.989H367.257L368.729 74.829H381.721V79.821H372.569V93.005H379.545V96.205L372.889 97.357V113.677L381.529 112.525L382.297 118.989ZM392.243 93.325L400.371 95.437V116.429C400.371 117.325 399.923 118.2 399.027 119.053C398.131 119.864 397.213 120.269 396.275 120.269H387.123V115.917H396.019L394.483 98.765L387.123 96.845V77.837C387.123 77.1544 387.379 76.493 387.891 75.853C388.445 75.1704 389.043 74.829 389.683 74.829H400.371V77.965L391.283 79.181L392.243 93.325Z"
                fill="#9F1A23"
            />
            <defs>
                <clipPath id="clip0_1815_547">
                    <rect width="188" height="249" fill="white" transform="translate(206 135)" />
                </clipPath>
            </defs>
        </svg>